<?xml version="1.0" standalone="no"?>
<!DOCTYPE svg PUBLIC "-//W3C//DTD SVG 20010904//EN"
 "http://www.w3.org/TR/2001/REC-SVG-20010904/DTD/svg10.dtd">
<svg version="1.0" xmlns="http://www.w3.org/2000/svg"
 width="174.000000pt" height="174.000000pt" viewBox="0 0 174.000000 174.000000"
 preserveAspectRatio="xMidYMid meet">
<metadata>
Created by potrace 1.14, written by Peter Selinger 2001-2017
</metadata>
<g transform="translate(0.000000,174.000000) scale(0.100000,-0.100000)"
fill="#ffffff" stroke="none">
<path d="M235 1438 c-36 -12 -91 -62 -111 -100 -14 -27 -13 -28 36 -65 27 -20
50 -40 50 -43 0 -4 -16 -25 -35 -47 l-35 -41 27 -33 c50 -59 144 -85 210 -57
15 6 42 25 59 41 26 24 38 28 75 25 l44 -3 -3 -40 c-2 -22 -13 -64 -24 -94
l-22 -54 27 -21 c39 -32 34 -50 -25 -84 -84 -47 -154 -107 -200 -172 l-42 -60
-75 1 c-42 1 -88 -3 -102 -9 -37 -15 -69 -59 -69 -95 0 -16 -5 -46 -11 -67
-14 -47 2 -85 50 -117 l34 -23 766 0 c742 0 767 1 798 20 23 14 35 31 43 62 6
24 16 57 21 74 35 115 -13 153 -196 154 l-80 0 -49 66 c-109 147 -291 237
-507 251 l-87 6 -5 41 c-2 23 -1 46 4 51 4 6 9 21 11 35 4 32 32 36 144 20 67
-10 84 -16 89 -31 9 -29 54 -78 86 -94 64 -34 157 -8 212 58 20 25 60 98 55
102 -2 1 -31 6 -65 12 -57 9 -64 8 -83 -11 -18 -18 -22 -19 -30 -6 -22 34 -3
90 30 90 11 0 20 -4 20 -10 0 -13 17 -13 81 1 l51 11 -5 45 c-6 53 -35 88 -95
115 -57 26 -107 17 -168 -29 -45 -35 -48 -36 -113 -29 -109 10 -132 17 -141
42 -10 26 -22 30 -116 39 -57 5 -73 4 -83 -9 -16 -19 -47 -20 -144 -5 -56 9
-79 18 -102 40 -57 53 -132 71 -200 47z m98 -59 c12 -7 39 -27 59 -45 22 -20
52 -35 75 -39 89 -13 142 -27 151 -38 15 -17 10 -117 -5 -117 -7 0 -46 5 -88
11 l-77 12 -29 -36 c-53 -65 -142 -71 -212 -14 l-29 22 22 27 c17 22 26 26 50
21 43 -8 75 3 88 32 17 38 15 53 -13 80 -29 30 -64 32 -96 6 -17 -14 -29 -17
-41 -10 -23 13 -23 21 5 51 42 47 94 61 140 37z m510 -55 c39 -11 13 -20 -40
-13 -32 4 -68 8 -81 8 -14 1 -20 5 -17 12 6 9 92 5 138 -7z m447 -39 c24 -13
60 -59 60 -78 0 -13 -46 -14 -65 -1 -66 43 -137 -82 -79 -140 20 -20 48 -20
64 -1 17 20 90 20 90 1 0 -8 -22 -37 -49 -65 -46 -47 -53 -51 -96 -51 -62 0
-101 25 -128 81 l-22 46 -111 14 -111 14 -35 -26 c-29 -20 -34 -29 -26 -43 6
-12 6 -22 -3 -32 -7 -8 -9 -30 -6 -54 6 -45 -4 -57 -54 -65 l-34 -6 34 16 c32
15 33 17 28 61 -3 33 -1 47 9 51 10 4 11 10 3 25 -9 18 -5 26 37 62 40 35 46
46 41 68 -5 19 -16 27 -49 35 -42 10 -42 11 -10 12 18 0 42 -3 52 -9 15 -8 23
-5 38 15 l20 25 112 -16 112 -17 36 36 c57 56 94 67 142 42z m-986 -14 c30
-33 -7 -71 -54 -56 -25 8 -25 16 1 49 24 31 31 32 53 7z m421 -421 c3 -5 1
-10 -4 -10 -6 0 -11 5 -11 10 0 6 2 10 4 10 3 0 8 -4 11 -10z m-106 -58 c1 -7
-3 -10 -9 -7 -5 3 -10 18 -9 33 0 24 1 25 9 7 5 -11 9 -26 9 -33z m129 -7 c14
-29 -2 -34 -18 -6 -12 24 -13 31 -2 31 5 0 14 -11 20 -25z m-40 3 c0 -7 2 -22
4 -32 4 -27 -15 -30 -31 -4 -12 19 -11 23 5 35 22 16 20 16 22 1z m-38 -108
c0 -8 -9 -1 -20 15 -11 17 -20 39 -20 50 1 15 6 11 20 -15 11 -19 19 -42 20
-50z m150 8 c0 -4 -7 -8 -15 -8 -8 0 -15 -4 -15 -9 0 -5 -8 -12 -17 -16 -25
-9 -58 32 -41 52 10 12 14 11 29 -9 10 -12 21 -19 25 -15 4 4 0 15 -9 25 -10
10 -14 22 -10 25 7 8 53 -31 53 -45z m62 -39 c22 -16 26 -24 17 -30 -15 -9
-72 28 -64 42 9 13 13 12 47 -12z m-142 -47 c0 -12 -7 -9 -25 8 -14 13 -25 30
-25 38 0 12 7 9 25 -8 14 -13 25 -30 25 -38z m106 19 c26 -20 22 -31 -11 -31
-26 0 -45 18 -38 36 7 19 20 18 49 -5z m124 -21 c11 -7 7 -10 -18 -10 -20 0
-31 4 -27 10 8 13 26 13 45 0z m-786 -96 c24 -9 19 -41 -8 -59 -17 -11 -22
-22 -19 -38 5 -22 5 -22 -10 -2 -15 19 -14 21 10 41 17 14 24 26 20 37 -11 29
-24 19 -48 -38 -13 -30 -29 -55 -36 -55 -7 0 -1 19 14 48 39 74 45 78 77 66z
m483 -21 c-8 -16 -17 -40 -21 -55 -5 -22 -2 -27 16 -31 21 -4 21 -4 -2 -6 -15
0 -32 -7 -38 -13 -9 -9 -9 -1 2 28 17 49 44 104 52 104 2 0 -2 -12 -9 -27z
m233 -12 c0 -11 -16 -33 -35 -50 -41 -35 -36 -34 -69 -21 -45 17 -30 58 34 90
21 11 20 8 -7 -17 -37 -35 -40 -45 -18 -63 13 -10 19 -9 36 6 33 30 41 51 29
75 -11 19 -10 20 9 9 12 -6 21 -19 21 -29z m279 25 c6 -7 8 -22 4 -32 -7 -18
-6 -18 22 0 l30 19 -25 -27 c-21 -23 -23 -30 -12 -47 12 -19 11 -19 -8 -9 -15
8 -19 17 -15 31 7 20 -2 24 -24 10 -9 -6 -11 -16 -6 -32 7 -21 6 -22 -9 -10
-23 19 -20 35 9 51 28 15 33 35 10 43 -10 4 -22 -11 -41 -49 -14 -29 -30 -54
-35 -54 -11 0 39 102 55 112 17 12 32 9 45 -6z m181 -33 c0 -6 -5 -15 -10 -18
-6 -4 -8 -11 -5 -16 4 -5 18 4 32 21 13 16 30 30 35 30 6 0 -1 -11 -17 -26
-27 -25 -27 -25 -9 -46 19 -21 19 -21 -3 -9 -16 8 -29 9 -42 1 -11 -5 -26 -10
-33 -9 -7 0 -2 5 11 10 20 8 21 12 10 25 -12 14 -14 14 -26 -2 -18 -24 -16
-12 4 35 15 34 19 37 35 28 10 -7 18 -17 18 -24z m-1102 15 c-16 -5 -28 -13
-28 -18 0 -5 12 -11 28 -13 26 -4 26 -4 -4 -6 -44 -2 -53 -29 -11 -33 l32 -3
-32 -6 c-47 -8 -52 1 -31 49 16 35 23 42 46 41 l27 -1 -27 -10z m197 -25 l-7
-38 34 33 c49 46 60 40 13 -8 -21 -22 -42 -40 -45 -40 -8 0 -11 41 -5 68 9 37
18 24 10 -15z m142 -39 c-8 -9 -87 -15 -87 -7 0 5 17 27 37 49 l36 39 9 -39
c5 -21 7 -40 5 -42z m378 66 c-28 -12 -37 -12 -30 0 3 6 16 10 28 9 21 0 21
-1 2 -9z m305 -19 c0 -10 -12 -28 -27 -42 l-28 -24 25 28 c20 23 22 31 12 47
-10 16 -9 18 3 14 8 -4 15 -14 15 -23z m174 23 c9 -3 16 -13 16 -22 0 -18 -38
-62 -54 -62 -5 0 0 9 12 20 24 23 29 55 10 63 -7 3 -10 6 -6 6 3 1 13 -2 22
-5z m94 -1 c-20 -3 -30 -13 -38 -38 -6 -18 -18 -39 -27 -47 -12 -9 -10 -2 6
29 25 51 25 50 4 56 -10 3 5 5 32 4 28 0 38 -2 23 -4z m62 -10 l-35 -15 24
-19 c13 -11 22 -21 20 -23 -13 -11 -72 -37 -76 -32 -3 2 10 12 28 22 31 15 32
17 15 30 -32 23 -7 49 49 52 6 0 -6 -6 -25 -15z m-1293 -23 c-8 -39 2 -38 35
2 14 18 29 30 32 27 3 -3 -14 -25 -38 -48 l-44 -44 2 34 c5 55 6 59 12 59 4 0
4 -13 1 -30z m88 -26 c-23 -36 -30 -24 -8 14 10 18 20 27 21 21 2 -5 -4 -21
-13 -35z m565 24 c0 -4 -8 -8 -18 -8 -11 0 -24 -11 -30 -25 -6 -14 -16 -25
-21 -25 -6 0 -2 15 9 33 12 20 27 33 40 33 11 0 20 -4 20 -8z"/>
<path d="M1320 454 c0 -9 5 -14 12 -12 18 6 21 28 4 28 -9 0 -16 -7 -16 -16z"/>
<path d="M540 435 c-25 -26 -18 -31 24 -15 17 6 24 14 20 25 -8 21 -17 19 -44
-10z"/>
</g>
</svg>
