<svg xmlns="http://www.w3.org/2000/svg" viewBox="0 0 80 80"><defs><style>.cls-1,.cls-5{opacity:0.2;}.cls-2{fill:#f2098f;}.cls-3{opacity:0.4;}.cls-4{fill:#ffd34f;}.cls-5{fill:#50116d;}.cls-6{fill:#fff;}</style></defs><g id="Слой_2" data-name="Слой 2"><g id="Layer_2" data-name="Layer 2"><g class="cls-1"><circle class="cls-2" cx="40" cy="40" r="40"/></g><g class="cls-3"><circle class="cls-2" cx="39.36" cy="39.36" r="28.9"/></g><path class="cls-4" d="M27.17,32.41c0-.14.22-3.32.22-3.32l.88,0-.14,3.5Z"/><polygon class="cls-4" points="44.26 33.17 45.03 22.9 46.47 22.73 45.47 33.13 44.26 33.17"/><polygon class="cls-4" points="22.01 53.9 27.71 54.09 27.94 46.24 21.92 46.38 22.01 53.9"/><polygon class="cls-4" points="21.92 46.38 19.96 46.9 20.1 53.34 22.01 53.9 21.92 46.38"/><polygon class="cls-4" points="49.23 55.38 47.96 55.17 46.13 43.13 48.3 43.05 50.05 54.96 49.23 55.38"/><polygon class="cls-5" points="49.23 55.38 47.96 55.17 46.13 43.13 48.3 43.05 50.05 54.96 49.23 55.38"/><polygon class="cls-5" points="47.96 55.17 40.23 55.46 40.4 42.82 46.78 43.04 47.96 55.17"/><polygon class="cls-4" points="26.97 32.19 45.52 31.54 53.77 32.38 35.25 34.54 26.97 32.19"/><polygon class="cls-4" points="53.38 32.59 52.42 23.77 50.85 24.03 52.03 32.98 53.38 32.59"/><path class="cls-4" d="M35.53,33.22c0-.14.09-3.82.09-3.82l-1.28.05,0,3.95Z"/><polygon class="cls-4" points="33.76 56.15 34.74 34.99 41.49 34.92 41.07 55.8 33.76 56.15"/><polygon class="cls-4" points="47.12 34.92 53.44 34.71 56.33 55.31 49.23 55.38 47.12 34.92"/><polygon class="cls-4" points="34.46 34.64 33.97 44.27 54.92 43.21 53.66 34.36 34.46 34.64"/><polygon class="cls-4" points="33.76 56.15 25.89 54.52 27.45 34.27 35.7 34.98 33.76 56.15"/><polygon class="cls-5" points="33.76 56.15 25.89 54.52 27.45 34.27 35.7 34.98 33.76 56.15"/><polygon class="cls-4" points="26.97 32.19 26.78 35.19 34.69 35.76 34.74 32.71 26.97 32.19"/><polygon class="cls-4" points="34.74 32.71 53.77 32.38 54.29 35.81 34.69 35.76 34.74 32.71"/><polygon class="cls-4" points="21.97 28.36 22.13 29.87 34.11 30.78 56.26 22.96 55.96 21.67 43.77 23.31 21.97 28.36"/><path class="cls-6" d="M34.09,28.9,56,21.67,46.05,22,22,28.36Z"/><polygon class="cls-4" points="56.33 55.31 54.64 43.23 54.92 43.21 53.87 35.89 54.29 35.81 53.77 32.38 53.05 32.38 53.83 35.76 53.3 35.78 54.55 43.15 54.3 43.21 56.33 55.31"/><path class="cls-4" d="M28.55,50.54a.26.26,0,0,0-.16.23.23.23,0,0,0,.13.22,22.65,22.65,0,0,0-.05,3.24.32.32,0,0,0-.2.3c0,.17.21.28.21.28.05,1,.3,2.68.3,2.68a.34.34,0,0,0-.12.34.37.37,0,0,0,.23.3s.41.6,3,.56S34.75,58,34.75,58a.32.32,0,0,0,.14-.32.35.35,0,0,0-.17-.3l0-2.83a.32.32,0,0,0,.2-.32.35.35,0,0,0-.23-.33l-.26-3a.27.27,0,0,0,.11-.24c0-.13,0-.18-.19-.26C33.4,49.5,29.07,50,28.55,50.54Z"/><path class="cls-6" d="M28.55,50.54c.25.52,1.3.86,3,.81s2.71-.38,2.79-.89C33.4,49.5,29.07,50,28.55,50.54Z"/><path class="cls-5" d="M29.2,51.48s-.16,1.79-.14,2.87a15.83,15.83,0,0,0,3.2.13C32.09,52.54,32,51.7,32,51.7A7.91,7.91,0,0,1,29.2,51.48Z"/><path class="cls-5" d="M29,54.91a14,14,0,0,0,.33,2.81,9.68,9.68,0,0,0,2.72.32,16.36,16.36,0,0,0,.19-3A11.36,11.36,0,0,1,29,54.91Z"/><path class="cls-4" d="M23.8,51.47a.26.26,0,0,0-.16.23.24.24,0,0,0,.13.22,24.18,24.18,0,0,0-.05,3.24.3.3,0,0,0-.2.29c0,.17.21.28.21.28.05,1,.3,2.69.3,2.69a.34.34,0,0,0-.12.34.39.39,0,0,0,.23.3s.41.6,3,.56S30,59,30,59s.15-.07.14-.33a.38.38,0,0,0-.16-.3l-.05-2.82a.32.32,0,0,0,.2-.32.36.36,0,0,0-.23-.34l-.26-3a.25.25,0,0,0,.12-.24c0-.12-.05-.17-.2-.26C28.65,50.42,24.33,50.89,23.8,51.47Z"/><path class="cls-6" d="M23.8,51.47c.25.51,1.3.86,3,.81s2.7-.38,2.78-.9C28.65,50.42,24.33,50.89,23.8,51.47Z"/><path class="cls-5" d="M24.46,52.4s-.17,1.79-.15,2.88a15.48,15.48,0,0,0,3.2.12c-.17-1.93-.29-2.78-.29-2.78A7.53,7.53,0,0,1,24.46,52.4Z"/><path class="cls-5" d="M24.26,55.83a14.75,14.75,0,0,0,.33,2.81,10,10,0,0,0,2.73.33,17.48,17.48,0,0,0,.19-3A11.19,11.19,0,0,1,24.26,55.83Z"/><polygon class="cls-5" points="53.87 35.89 43.52 35.97 43.96 41.98 54.92 43.21 53.87 35.89"/></g></g></svg>