<svg xmlns="http://www.w3.org/2000/svg" viewBox="0 0 60 60"><defs><style>.cls-1,.cls-5{opacity:0.2;}.cls-2{fill:#f2098f;}.cls-3{opacity:0.4;}.cls-4{fill:#ffd34f;}.cls-5{fill:#50116d;}.cls-6{fill:#fff;}</style></defs><title>Ресурс 4</title><g id="Слой_2" data-name="Слой 2"><g id="преимущества_с_плашко1" data-name="преимущества с плашко1"><g class="cls-1"><circle class="cls-2" cx="30" cy="30" r="30"/></g><g class="cls-3"><circle class="cls-2" cx="29.52" cy="29.52" r="21.68"/></g><path class="cls-4" d="M46.55,36.22S48,29,43.4,23.4a18.78,18.78,0,0,0-11.58-6.24,115.06,115.06,0,0,1,8.47,9.12A104.5,104.5,0,0,1,46.55,36.22Z"/><polygon class="cls-4" points="44.4 23.48 21.39 42.16 19.77 39.57 43.54 22.3 44.4 23.48"/><polygon class="cls-5" points="28.23 36.61 34.92 31.18 33.26 29.77 26.14 34.94 28.23 36.61"/><path class="cls-6" d="M31.94,17.28l-.12-.12A18.78,18.78,0,0,1,43.4,23.4C48,29,46.55,36.22,46.55,36.22s-.34-7.3-4.09-12C39.11,19.94,33.16,17.7,31.94,17.28Z"/><path class="cls-4" d="M13.48,36.22S12.07,29,16.63,23.4a18.79,18.79,0,0,1,11.59-6.24,114.49,114.49,0,0,0-8.48,9.12A104.5,104.5,0,0,0,13.48,36.22Z"/><polygon class="cls-4" points="15.64 23.48 38.64 42.16 40.27 39.57 16.49 22.3 15.64 23.48"/><path class="cls-6" d="M28.09,17.28l.13-.12A18.79,18.79,0,0,0,16.63,23.4C12.07,29,13.48,36.22,13.48,36.22s.34-7.3,4.09-12C20.92,19.94,26.87,17.7,28.09,17.28Z"/></g></g></svg>