<svg xmlns="http://www.w3.org/2000/svg" viewBox="0 0 80 80"><defs><style>.cls-1,.cls-6{opacity:0.2;}.cls-2{fill:#f2098f;}.cls-3{opacity:0.4;}.cls-4{fill:#fff;}.cls-5{fill:#ffd34f;}.cls-6{fill:#50116d;}</style></defs><g id="Слой_2" data-name="Слой 2"><g id="Layer_2" data-name="Layer 2"><g class="cls-1"><circle class="cls-2" cx="40" cy="40" r="40"/></g><g class="cls-3"><circle class="cls-2" cx="39.36" cy="39.36" r="28.9"/></g><path class="cls-4" d="M48.71,36.94a8.67,8.67,0,0,1,7-5.31c5.27-.56,7.45,4.59,7.45,4.59l-6.62,4.55Z"/><path class="cls-4" d="M17,37s3-5.48,7-5.48,7.46,4.77,7.46,4.77l-7,4.37Z"/><polygon class="cls-5" points="39.65 16.72 40.9 16.46 42.6 52 37.68 52.12 39.65 16.72"/><polygon class="cls-5" points="22.79 25.21 40.17 20.07 56.76 23.35 56.82 25.12 40.17 25.74 22.9 26.69 22.79 25.21"/><path class="cls-5" d="M17,37s-1.12,8.85,7.27,8.85,7.18-9.56,7.18-9.56Z"/><path class="cls-5" d="M48.71,36.94S47.59,45.79,56,45.79s7.19-9.57,7.19-9.57Z"/><path class="cls-4" d="M28.24,53.38l23.56.23S48.49,45,40.28,45,28.24,53.38,28.24,53.38Z"/><path class="cls-5" d="M28.24,53.43l19.39.18s-2.72-7-9.48-7S28.24,53.43,28.24,53.43Z"/><polygon class="cls-5" points="18.69 37.64 17.84 36.99 23.77 24.93 31.14 36.86 30.35 37.61 23.86 27.11 18.69 37.64"/><polygon class="cls-5" points="50.38 37.37 49.52 36.77 55.59 23.37 62.84 36.64 62.01 37.34 55.67 25.72 50.38 37.37"/><path class="cls-6" d="M31.36,39.76a35.79,35.79,0,0,1-6.9.93,23.13,23.13,0,0,1-7.33-.77c.43,2.58,2,6,7.17,6C29.28,45.88,30.88,42.5,31.36,39.76Z"/><path class="cls-6" d="M62.93,40.22a51.35,51.35,0,0,1-6.67,1A21.93,21.93,0,0,1,49,40.69c.63,2.42,2.36,5.1,7,5.1S62.34,42.84,62.93,40.22Z"/></g></g></svg>