<svg xmlns="http://www.w3.org/2000/svg" viewBox="0 0 80 80"><defs><style>.cls-1,.cls-5{opacity:0.2;}.cls-2{fill:#f2098f;}.cls-3{opacity:0.4;}.cls-4{fill:#ffd34f;}.cls-5{fill:#50116d;}.cls-6{fill:#fff;}</style></defs><g id="Слой_2" data-name="Слой 2"><g id="Layer_2" data-name="Layer 2"><g class="cls-1"><circle class="cls-2" cx="40" cy="40" r="40"/></g><g class="cls-3"><circle class="cls-2" cx="39.36" cy="39.36" r="28.9"/></g><polygon class="cls-4" points="50.6 47.62 57.65 54.07 55.01 56.49 49.15 49.02 50.6 47.62"/><polygon class="cls-5" points="50.6 47.62 57.65 54.07 55.01 56.49 49.15 49.02 50.6 47.62"/><polygon class="cls-4" points="23.94 21.3 25.23 27.57 46.58 49.53 51.53 45.12 30.04 22.98 23.94 21.3"/><polygon class="cls-6" points="47.04 41.99 48.88 42.39 30.04 22.98 23.94 21.3 25.23 27.57 43.88 46.75 44.04 45.17 25.97 27.13 26.23 23.53 29.57 24.33 47.04 41.99"/><polygon class="cls-4" points="52.99 43.31 44.92 51.16 46.53 52.5 54.28 44.44 52.99 43.31"/><polygon class="cls-5" points="48.65 45.88 47.96 46.78 29.92 29.22 29.44 27.36 31.44 28.25 48.65 45.88"/><polygon class="cls-4" points="27.29 47.62 20.24 54.07 22.88 56.49 28.74 49.02 27.29 47.62"/><polygon class="cls-5" points="27.29 47.62 20.24 54.07 22.88 56.49 28.74 49.02 27.29 47.62"/><polygon class="cls-4" points="53.95 21.3 52.65 27.57 31.31 49.53 26.36 45.12 47.85 22.98 53.95 21.3"/><polygon class="cls-6" points="30.85 41.99 29 42.39 47.85 22.98 53.95 21.3 52.65 27.57 34.01 46.75 33.85 45.17 51.92 27.13 51.65 23.53 48.31 24.33 30.85 41.99"/><polygon class="cls-4" points="24.89 43.31 32.97 51.16 31.36 52.5 23.61 44.44 24.89 43.31"/><polygon class="cls-5" points="29.24 45.88 29.93 46.78 47.97 29.22 48.45 27.36 46.45 28.25 29.24 45.88"/></g></g></svg>