<svg xmlns="http://www.w3.org/2000/svg" viewBox="0 0 80 80"><defs><style>.cls-1,.cls-5{opacity:0.2;}.cls-2{fill:#f2098f;}.cls-3{opacity:0.4;}.cls-4{fill:#ffd34f;}.cls-5{fill:#50116d;}.cls-6{fill:#fff;}</style></defs><g id="Слой_2" data-name="Слой 2"><g id="Layer_2" data-name="Layer 2"><g class="cls-1"><circle class="cls-2" cx="40" cy="40" r="40"/></g><g class="cls-3"><circle class="cls-2" cx="39.36" cy="39.36" r="28.9"/></g><polygon class="cls-4" points="35.79 43.67 34.24 40.58 25.58 42.43 19.24 36.09 23.26 27.59 31.61 20.63 40.58 17.07 46.31 22.79 43.37 30.21 46.31 34.08 46.31 36.87 49.55 37.48 48.01 40.58 51.88 40.11 50.48 43.83 54.5 43.21 52.34 47.23 56.67 46.61 54.81 50.63 56.05 52.18 49.4 58.52 47.23 56.66 43.68 58.67 43.99 53.26 39.19 54.65 40.27 49.86 36.41 50.48 38.73 46.3 34.4 47.23 35.79 43.67"/><path class="cls-5" d="M53,52.26l1.7-3-4.82,1.33.82-3.93-3.42,1.19,1.41-4.38-4.45.81L45.9,40l-3.71.22L38.9,34.16l3.68-2.91L41.11,19.76l-2.85,6.62L28.78,33l-7.17,2.39,11.77,3.13.12-.09,4.09,4.34-.44,2.74,4.9.45L39.3,49l5.56.07s-3.48,4.31-3.26,4.16S48,51.74,48,51.74L46.2,56.49,48,55.68l2.4,1.77,4-4Z"/><path class="cls-6" d="M24.83,28.17c.07-.2,7.41-6.66,7.41-6.66s8.14-3,8.35-3,5.11,4.37,5.11,4.37l-2.33,7.29,2.94-7.42-5.73-5.72-9,3.55-8.35,7-4,8.5,6.34,6.34-5.39-6.72Z"/></g></g></svg>