<svg xmlns="http://www.w3.org/2000/svg" viewBox="0 0 60 60"><defs><style>.cls-1,.cls-6{opacity:0.2;}.cls-2{fill:#f2098f;}.cls-3{opacity:0.4;}.cls-4{fill:#ffd34f;}.cls-5{fill:#fff;}.cls-6{fill:#50116d;}</style></defs><title>Ресурс 3</title><g id="Слой_2" data-name="Слой 2"><g id="преимущества_с_плашко1" data-name="преимущества с плашко1"><g class="cls-1"><circle class="cls-2" cx="30" cy="30" r="30"/></g><g class="cls-3"><circle class="cls-2" cx="29.52" cy="29.52" r="21.68"/></g><polygon class="cls-4" points="37.63 25.45 28.67 35.34 31.72 39.76 43.95 32.16 37.63 25.45"/><rect class="cls-4" x="23.4" y="29.36" width="3.89" height="11.18" transform="translate(-17.82 34.46) rotate(-53.41)"/><path class="cls-4" d="M21.49,32.16l-1.38-1a3.26,3.26,0,0,0-4-4.88l-.73-1.55a5,5,0,0,1,6.12,7.45Z"/><path class="cls-5" d="M17.5,24.23a5,5,0,0,1,4,7.93l-1.38-1a3.25,3.25,0,0,0-.67-4.55A3.2,3.2,0,0,0,17.5,26a3.31,3.31,0,0,0-1.4.31l-.73-1.55a5,5,0,0,1,2.13-.48m0-.83h0A5.84,5.84,0,0,0,15,24l-.75.36.36.75.73,1.55.36.75.75-.36a2.5,2.5,0,0,1,1-.23,2.38,2.38,0,0,1,1.45.48,2.45,2.45,0,0,1,.95,1.59,2.42,2.42,0,0,1-.45,1.79l-.5.67.67.5,1.38,1,.66.5.5-.67A5.81,5.81,0,0,0,21,24.54,5.74,5.74,0,0,0,17.5,23.4Z"/><path class="cls-4" d="M21.49,32.16l-1.38-1a3.25,3.25,0,0,1-5.82-2.43l-1.7-.25a5,5,0,0,0,8.9,3.7Z"/><path class="cls-5" d="M12.59,28.46l1.7.25a3.24,3.24,0,0,0,3.21,3.74,3.23,3.23,0,0,0,2.61-1.31l1.38,1a5,5,0,0,1-8.9-3.7m-.7-.95-.12.82a5.8,5.8,0,0,0,10.39,4.33l.49-.67L22,31.5l-1.38-1L19.94,30l-.49.66a2.41,2.41,0,0,1-1.95,1,2.35,2.35,0,0,1-1.44-.48,2.4,2.4,0,0,1-.95-2.3l.12-.83-.82-.12-1.7-.26-.82-.12Z"/><circle class="cls-4" cx="20.82" cy="31.66" r="2.93"/><circle class="cls-6" cx="20.82" cy="31.66" r="1.68"/><polygon class="cls-6" points="35.85 29.4 30.53 34.91 31.97 35.42 36.7 31.18 35.85 29.4"/><polygon class="cls-6" points="38.09 32.45 32.81 36.66 33.38 37.85 39.64 33.43 38.09 32.45"/><circle class="cls-4" cx="40.96" cy="28.38" r="5.66"/><path class="cls-6" d="M44.09,25.79a3.71,3.71,0,0,1-.48.84,4.06,4.06,0,0,1-5.69.84,3.43,3.43,0,0,1-.7-.67,4.06,4.06,0,1,0,6.87-1Z"/><circle class="cls-4" cx="29.83" cy="38.28" r="4.33"/><circle class="cls-6" cx="29.83" cy="38.28" r="2.44"/></g></g></svg>