<svg xmlns="http://www.w3.org/2000/svg" viewBox="0 0 80 80"><defs><style>.cls-1,.cls-5{opacity:0.2;}.cls-2{fill:#f2098f;}.cls-3{opacity:0.4;}.cls-4{fill:#ffd34f;}.cls-5{fill:#50116d;}</style></defs><g id="Слой_2" data-name="Слой 2"><g id="Layer_2" data-name="Layer 2"><g class="cls-1"><circle class="cls-2" cx="40" cy="40" r="40"/></g><g class="cls-3"><circle class="cls-2" cx="39.36" cy="39.36" r="28.9"/></g><polygon class="cls-4" points="19.84 29.87 26.94 55.72 43.47 51.17 37 25.07 19.84 29.87"/><path class="cls-5" d="M37.63,35.46,36.2,27.28l-9,3.5-4.94.65L25.55,42l2.6,10.78,6-1.95,7.4-1ZM33.57,47.21c-2.3.41-4.7-2.72-5.22-5.33s-1.53-6.79,1.46-7.83,4.6,1.67,5.64,5.33S35.87,46.79,33.57,47.21Z"/><polygon class="cls-4" points="59.17 29.87 52.06 55.72 35.53 51.17 42.01 25.07 59.17 29.87"/><path class="cls-5" d="M37.48,49.74l7.41,1,6,1.95L53.46,42,56.7,31.43l-4.93-.65-9-3.5-1.43,8.18Zm6.08-10.36c1-3.66,2.61-6.37,5.63-5.33s2,5.22,1.47,7.83-2.93,5.74-5.22,5.33S42.51,43,43.56,39.38Z"/></g></g></svg>