<svg xmlns="http://www.w3.org/2000/svg" viewBox="0 0 69.1 81.55"><defs><style>.cls-1{fill:#fff;}.cls-2{fill:#04d7f3;}.cls-3{fill:#f2098f;}.cls-4,.cls-5{opacity:0.4;fill:#50116d;}.cls-4{font-size:24.82px;font-family:RaskhalRegular;}</style></defs><title>Ресурс 5</title><g id="Слой_2" data-name="Слой 2"><g id="лого"><polygon class="cls-1" points="8.26 5.02 0 67.36 5.12 74.51 60.41 81.55 69.1 16.51 64.12 9.23 8.26 5.02"/><polygon class="cls-2" points="1.57 67.07 3.35 69.93 27.5 72.25 5.26 71.98 5.86 72.71 58.38 79.52 67.61 16.88 66.67 15.48 62.59 36.5 65.3 13.98 63.39 10.97 55.75 74.03 1.57 67.07"/><polygon class="cls-3" points="12.7 5.36 13.47 1.63 17.38 0 21.42 1.45 22.3 5.67 20.76 18.54 15.87 19.71 12.7 17.92 14.57 6.81 16.19 6.77 14.48 16.83 16.28 18.06 19.18 17.4 20.54 5.62 19.76 2.18 17.51 1.76 14.74 2.33 13.96 5.45 12.7 5.36"/><text class="cls-4" transform="translate(22.58 30.53)">WP</text><polygon class="cls-5" points="9.99 31.74 55.45 33.99 55.45 35.46 9.57 32.44 9.99 31.74"/><path class="cls-5" d="M12.28,40.68a1,1,0,1,0-1.8-.83A1,1,0,1,0,12.28,40.68Z"/><path class="cls-5" d="M9.43,49.72a.92.92,0,0,1,.6,1.14A1.22,1.22,0,0,1,9,51.68a.83.83,0,0,1-.65-.17.8.8,0,0,1-.18-.81A2.38,2.38,0,0,1,8.57,50C8.83,49.62,9,49.63,9.43,49.72Z"/><polygon class="cls-2" points="39.01 70.71 46.74 56.63 55.86 63.14 39.01 70.71"/><polygon class="cls-5" points="14.02 41 13.02 47.76 42.62 49.93 43.62 42.67 14.02 41"/><polygon class="cls-5" points="12.52 51.26 11.35 58.68 34.12 61.02 35.28 53.6 12.52 51.26"/></g></g></svg>