<svg xmlns="http://www.w3.org/2000/svg" viewBox="0 0 73.69 56.81"><defs><style>.cls-1{fill:#f2098f;}.cls-2{fill:#fff;opacity:0.5;}.cls-3{opacity:0.2;}</style></defs><title>Ресурс 11</title><g id="Слой_2" data-name="Слой 2"><g id="Слой_8" data-name="Слой 8"><polygon class="cls-1" points="16.37 12.46 0 17.38 18.57 43.89 36.96 52.75 56.54 50.95 54.16 56.81 73.69 47.57 59.51 32.38 58.88 37.86 42.39 24.24 30.6 0 16.37 12.46"/><polygon class="cls-2" points="73.69 47.57 58.38 43.71 58.49 42.39 44.78 37.28 33.88 26.86 30.6 0 42.39 24.24 58.88 37.86 59.51 32.38 73.69 47.57"/><polygon class="cls-3" points="0 17.38 16.37 12.46 27.77 35.35 38.66 43.87 57.81 46.39 56.88 50.16 73.69 47.57 54.16 56.81 56.54 50.95 36.96 52.75 18.57 43.89 0 17.38"/></g></g></svg>