<svg xmlns="http://www.w3.org/2000/svg" viewBox="0 0 61.79 52.52"><defs><style>.cls-1{fill:#f2098f;}.cls-2{fill:#fff;opacity:0.5;}.cls-3{opacity:0.2;}</style></defs><title>Ресурс 9</title><g id="Слой_2" data-name="Слой 2"><g id="Слой_8" data-name="Слой 8"><polygon class="cls-1" points="4.81 35.67 1.93 52.52 33.93 47.7 50.06 35.19 57.17 16.87 61.36 21.61 61.79 0 41.87 5.93 46.49 8.94 26.95 17.62 0 17.38 4.81 35.67"/><polygon class="cls-2" points="61.79 0 51.51 11.98 50.38 11.3 39.69 21.3 25.51 26.41 0 17.38 26.95 17.62 46.49 8.94 41.87 5.92 61.79 0"/><polygon class="cls-3" points="1.93 52.52 4.81 35.67 30.39 35.67 42.87 29.72 53.65 13.69 56.62 16.2 61.79 0 61.36 21.61 57.17 16.87 50.06 35.19 33.93 47.7 1.93 52.52"/></g></g></svg>