<svg xmlns="http://www.w3.org/2000/svg" viewBox="0 0 73.69 56.81"><defs><style>.cls-1{fill:#f2098f;}.cls-2{fill:#fff;opacity:0.5;}.cls-3{opacity:0.2;}</style></defs><title>Ресурс 12</title><g id="Слой_2" data-name="Слой 2"><g id="Слой_8" data-name="Слой 8"><polygon class="cls-1" points="57.32 12.46 73.69 17.38 55.12 43.89 36.73 52.75 17.16 50.95 19.53 56.81 0 47.57 14.18 32.38 14.82 37.86 31.3 24.24 43.1 0 57.32 12.46"/><polygon class="cls-2" points="0 47.57 15.31 43.71 15.2 42.39 28.91 37.28 39.81 26.86 43.1 0 31.3 24.24 14.82 37.86 14.18 32.38 0 47.57"/><polygon class="cls-3" points="73.69 17.38 57.32 12.46 45.93 35.35 35.04 43.87 15.88 46.39 16.81 50.16 0 47.57 19.53 56.81 17.16 50.95 36.73 52.75 55.12 43.89 73.69 17.38"/></g></g></svg>