<svg xmlns="http://www.w3.org/2000/svg" viewBox="0 0 61.79 52.52"><defs><style>.cls-1{fill:#f2098f;}.cls-2{opacity:0.2;}.cls-3{fill:#fff;opacity:0.5;}</style></defs><title>Ресурс 12</title><g id="Слой_2" data-name="Слой 2"><g id="Слой_8" data-name="Слой 8"><polygon class="cls-1" points="56.98 16.85 59.87 0 27.86 4.81 11.73 17.33 4.62 35.65 0.43 30.91 0 52.52 19.92 46.59 15.29 43.58 34.84 34.9 61.79 35.14 56.98 16.85"/><polygon class="cls-2" points="0 52.52 13.51 42.99 9.87 39.94 23.72 26.91 35.03 22.3 56.98 16.85 61.79 35.14 34.84 34.9 15.29 43.58 19.92 46.59 0 52.52"/><polygon class="cls-3" points="57.77 1.53 33.16 13.87 18.93 22.8 6.5 37.98 7.83 39.21 0 52.52 1.93 33.86 4.81 36.51 12.73 18.38 28.88 6.2 57.77 1.53"/></g></g></svg>