<svg xmlns="http://www.w3.org/2000/svg" viewBox="0 0 75.76 54.88"><defs><style>.cls-1{fill:#f2098f;}.cls-2{opacity:0.2;}.cls-3{fill:#fff;opacity:0.5;}</style></defs><title>Ресурс 10</title><g id="Слой_2" data-name="Слой 2"><g id="Слой_8" data-name="Слой 8"><polygon class="cls-1" points="15.95 41.38 0 35.24 20.52 10.21 39.52 2.76 58.91 6.02 56.98 0 75.76 10.69 60.47 24.77 60.25 19.26 42.79 31.6 29.2 54.88 15.95 41.38"/><polygon class="cls-2" points="75.76 10.69 60.66 17.42 59.9 12.73 41.62 17.96 31.87 25.32 15.95 41.38 29.2 54.88 42.79 31.6 60.25 19.26 60.47 24.77 75.76 10.69"/><polygon class="cls-3" points="2.39 34.22 25.58 19.39 40.54 11.74 59.94 8.83 60.32 10.61 75.76 10.69 58.74 2.79 59.55 6.63 39.92 4.16 21.19 11.79 2.39 34.22"/></g></g></svg>