<svg xmlns="http://www.w3.org/2000/svg" viewBox="0 0 61.79 52.52"><defs><style>.cls-1{fill:#f2098f;}.cls-2{opacity:0.2;}.cls-3{fill:#fff;opacity:0.5;}</style></defs><title>Ресурс 7</title><g id="Слой_2" data-name="Слой 2"><g id="Слой_8" data-name="Слой 8"><polygon class="cls-1" points="4.81 16.85 1.93 0 33.93 4.81 50.06 17.33 57.17 35.65 61.36 30.91 61.79 52.52 41.87 46.59 46.49 43.58 26.95 34.9 0 35.14 4.81 16.85"/><polygon class="cls-2" points="61.79 52.52 48.28 42.99 51.92 39.94 38.07 26.91 26.76 22.3 4.81 16.85 0 35.14 26.95 34.9 46.49 43.58 41.87 46.59 61.79 52.52"/><polygon class="cls-3" points="4.03 1.53 28.64 13.87 42.87 22.8 55.29 37.98 53.96 39.21 61.79 52.52 59.87 33.86 56.98 36.51 49.06 18.38 32.91 6.2 4.03 1.53"/></g></g></svg>