<svg xmlns="http://www.w3.org/2000/svg" viewBox="0 0 96 35"><defs><style>.cls-1{fill:none;}.cls-2{fill:#3a0e51;}.cls-3{fill:#50116d;}</style></defs><g id="Слой_2" data-name="Слой 2"><g id="Layer_1" data-name="Layer 1"><rect class="cls-1" width="96" height="35"/><path class="cls-2" d="M83.74,35H7a3,3,0,0,1-2.89-3.82l8.29-29A3,3,0,0,1,15.26,0H92a3,3,0,0,1,2.89,3.82l-8.29,29A3,3,0,0,1,83.74,35Z"/><path class="cls-3" d="M80.74,35H4a3,3,0,0,1-2.89-3.82l8.29-29A3,3,0,0,1,12.26,0H89a3,3,0,0,1,2.89,3.82l-8.29,29A3,3,0,0,1,80.74,35Z"/></g></g></svg>